# xmcd
#
# Track frame offsets: 
#        180
#        15694
#        28607
#        43034
#        58447
#        72494
#        88208
#        103480
#        117476
#        133269
#        146382
#        160287
#        175525
#        191464
#        205498
#        221021
#        234657
#        250162
#
# Disc length: 3509 seconds
#
# Revision: 1
# Processed by: cddbd v1.5.2PL0 Copyright (c) Steve Scherf et al.
# Submitted via: ExactAudioCopy v0.99pb5
#
DISCID=190db312
DTITLE=Jelly Roll Morton - The quintessence 1923-1940 | CD1
DYEAR=1994
DGENRE=Jazz
TTITLE0=The pearls
TTITLE1=King Porter stomp
TTITLE2=Black bottom stomp
TTITLE3=Smoke-house blues
TTITLE4=The chant
TTITLE5=Sidewalk blues
TTITLE6=Dead man blues
TTITLE7=Steamboat stomp
TTITLE8=Someday sweetheart
TTITLE9=Grandpa's spells
TTITLE10=Original Jelly Roll blues
TTITLE11=Doctor Jazz
TTITLE12=Cannon Ball blues
TTITLE13=Hyena stomp
TTITLE14=Billy Goat stomp
TTITLE15=Wild man blues
TTITLE16=Jungle blues
TTITLE17=Kansas City stomps
EXTD=
EXTT0=
EXTT1=
EXTT2=
EXTT3=
EXTT4=
EXTT5=
EXTT6=
EXTT7=
EXTT8=
EXTT9=
EXTT10=
EXTT11=
EXTT12=
EXTT13=
EXTT14=
EXTT15=
EXTT16=
EXTT17=
PLAYORDER=
